# xmcd
#
# Track frame offsets: 
#        150
#        13787
#        30547
#        45932
#        58350
#        76210
#        90415
#        104757
#        116615
#        131715
#
# Disc length: 1907 seconds
#
# Revision: 3
# Processed by: cddbd v1.5.2PL0 Copyright (c) Steve Scherf et al.
# Submitted via: ExactAudioCopy v0.99pb5
#
DISCID=7d07710a
DTITLE=Reba McEntire - Whoever's In New England
DYEAR=1986
DGENRE=Country
TTITLE0=I Can't Stop Now
TTITLE1=You Can Take The Wings Off Me
TTITLE2=Whoever's In New England
TTITLE3=I'll Believe It When I Feel It
TTITLE4=I've Seen Better Days
TTITLE5=Little Rock
TTITLE6=If You Only Knew
TTITLE7=One Thin Dime
TTITLE8=Don't Touch Me There
TTITLE9=To Make That Same Mistake Again
EXTD=
EXTT0=
EXTT1=
EXTT2=
EXTT3=
EXTT4=
EXTT5=
EXTT6=
EXTT7=
EXTT8=
EXTT9=
PLAYORDER=
